<svg width="96" height="96" viewBox="0 0 480 480" fill="none" xmlns="http://www.w3.org/2000/svg">
<path d="M151.027 331C135.002 331 118.709 323.521 102.15 308.564L98.9452 325.497H41.2551L95.7402 56.2595L155.033 47.7929L106.958 285.28C114.436 290.925 122.048 293.747 129.793 293.747C145.017 293.747 158.371 284.434 169.856 265.807C181.608 247.181 190.689 223.474 197.099 194.688C203.509 165.902 206.714 136.833 206.714 107.482C206.714 79.8248 201.505 59.6461 191.089 46.9462C180.94 33.9642 166.651 27.4731 148.222 27.4731C128.191 27.4731 110.163 31.7064 94.1377 40.173C78.3798 48.3574 65.9604 60.2106 56.8795 75.7326C47.7986 91.2547 43.2582 109.458 43.2582 130.342C43.2582 140.784 44.193 148.122 46.0626 152.355C47.9322 156.306 48.867 158.564 48.867 159.128C34.9786 159.128 24.2953 156.024 16.8169 149.815C9.60563 143.606 6 133.588 6 119.759C6 100.568 12.8106 82.3648 26.4319 65.1494C40.0532 47.934 58.2149 34.1053 80.9171 23.6631C103.886 13.221 128.592 7.99998 155.033 7.99998C191.623 7.99998 218.599 19.4299 235.959 42.2896C253.32 65.1494 262 94.3591 262 129.919C262 162.092 256.792 193.841 246.376 225.168C236.226 256.212 222.605 281.612 205.512 301.367C188.418 321.122 170.257 331 151.027 331Z" fill="#8547E8"/>
<path d="M329.676 215.448L388.927 207.475L360.503 340.629C373.313 339.566 385.057 333.985 395.733 323.885C406.675 313.786 415.216 301.294 421.354 286.411C427.493 271.527 430.562 256.909 430.562 242.557C430.562 226.611 426.425 213.588 418.152 203.488C409.878 193.388 397.467 188.339 380.92 188.339C348.359 188.339 322.871 196.844 304.455 213.853C286.306 230.863 277.232 254.65 277.232 285.215C277.232 295.048 278.166 301.959 280.034 305.945C281.902 309.666 282.836 311.792 282.836 312.324C268.424 312.324 257.615 309.4 250.409 303.553C243.47 297.44 240 287.474 240 273.653C240 256.644 246.939 240.165 260.818 224.219C274.963 208.006 292.978 194.983 314.864 185.149C336.749 175.05 358.634 170 380.52 170C401.604 170 419.219 173.588 433.365 180.764C447.51 187.94 457.919 197.508 464.591 209.468C471.53 221.162 475 234.185 475 248.537C475 265.813 470.196 282.69 460.588 299.168C451.246 315.646 437.768 329.201 420.153 339.832C402.538 350.197 382.254 355.38 359.302 355.38H357.3L332.879 469H275.23L329.676 215.448Z" fill="#FC8240"/>
</svg>
